<svg width="131" height="122" viewBox="0 0 131 122" fill="none" xmlns="http://www.w3.org/2000/svg">
<path d="M42.7962 51.7279C42.8147 51.2197 42.9444 50.7201 43.1778 50.2604C43.4112 49.8005 43.7429 49.3897 44.1532 49.0533C44.9164 48.3445 45.9509 47.9464 47.03 47.9464C48.1085 47.9464 49.1436 48.3445 49.9068 49.0533L66.1906 64.1931L82.4742 49.0533C83.2559 48.7539 84.1184 48.6882 84.9421 48.8653C85.7657 49.0424 86.5096 49.4536 87.0706 50.0417C87.6315 50.6298 87.9816 51.3656 88.0722 52.1473C88.1629 52.9285 87.9896 53.7168 87.5764 54.4026L68.5788 72.0658C67.8151 72.7749 66.7806 73.1731 65.702 73.1731C64.623 73.1731 63.5884 72.7749 62.8252 72.0658L44.1532 54.4026C43.7429 54.066 43.4112 53.6552 43.1778 53.1955C42.9444 52.7357 42.8147 52.2361 42.7962 51.7279Z" fill="#A0A0A0"/>
</svg>
