<svg width="122" height="119" viewBox="0 0 122 119" fill="none" xmlns="http://www.w3.org/2000/svg">
<path d="M69.3913 38.1448C69.8995 38.1615 70.3991 38.2792 70.8588 38.4908C71.3187 38.7025 71.7295 39.0032 72.0659 39.3753C72.7747 40.0673 73.1729 41.0054 73.1729 41.9839C73.1729 42.9619 72.7747 43.9005 72.0659 44.5925L56.9261 59.3583L72.0659 74.1239C72.3653 74.8327 72.431 75.6148 72.2539 76.3617C72.0768 77.1086 71.6656 77.7832 71.0775 78.2918C70.4894 78.8004 69.7536 79.1179 68.9719 79.2001C68.1907 79.2823 67.4024 79.1251 66.7166 78.7505L49.0534 61.5239C48.3443 60.8314 47.9461 59.8933 47.9461 58.9153C47.9461 57.9368 48.3443 56.9987 49.0534 56.3067L66.7166 39.3753C67.0532 39.0032 67.464 38.7025 67.9237 38.4908C68.3835 38.2792 68.8831 38.1615 69.3913 38.1448Z" fill="#A0A0A0"/>
</svg>
