<svg width="122" height="119" viewBox="0 0 122 119" fill="none" xmlns="http://www.w3.org/2000/svg">
<path d="M51.7279 79.9812C51.2197 79.9644 50.7201 79.8468 50.2604 79.6352C49.8004 79.4235 49.3897 79.1228 49.0532 78.7507C48.3444 78.0587 47.9463 77.1206 47.9463 76.1421C47.9463 75.1641 48.3444 74.2255 49.0532 73.5335L64.193 58.7677L49.0532 44.0021C48.7538 43.2932 48.6881 42.5112 48.8653 41.7643C49.0424 41.0174 49.4535 40.3428 50.0416 39.8342C50.6297 39.3255 51.3655 39.0081 52.1473 38.9259C52.9285 38.8437 53.7168 39.0008 54.4026 39.3755L72.0658 56.6021C72.7748 57.2946 73.173 58.2327 73.173 59.2107C73.173 60.1892 72.7748 61.1273 72.0658 61.8193L54.4026 78.7507C54.066 79.1228 53.6552 79.4235 53.1954 79.6352C52.7357 79.8468 52.2361 79.9644 51.7279 79.9812Z" fill="#A0A0A0"/>
</svg>
