<svg width="81" height="81" viewBox="0 0 81 81" fill="none" xmlns="http://www.w3.org/2000/svg">
<g clip-path="url(#clip0_111_27)">
<path d="M40.5 0C18.1237 0 0 18.1237 0 40.5C0 46.7775 1.4175 52.6838 3.94875 57.9825C4.9275 60.0413 6.075 61.9987 7.39125 63.855C14.715 74.2162 26.8312 81 40.5 81C54.1688 81 66.285 74.2162 73.6087 63.855C74.925 61.9987 76.0725 60.0413 77.0512 57.9825C79.5825 52.6838 81 46.7775 81 40.5C81 18.1237 62.8763 0 40.5 0ZM40.5 74.25C29.295 74.25 19.305 68.7487 13.1625 60.2775C15.8288 58.86 18.7987 57.6787 21.9375 56.7L22.3425 57.8475C24.7725 64.53 33.21 67.5 40.5 67.5C47.79 67.5 56.2275 64.53 58.6575 57.8475L59.0625 56.7C62.2012 57.6787 65.1712 58.86 67.8375 60.2775C61.695 68.7487 51.705 74.25 40.5 74.25ZM34.29 47.52C33.75 46.1362 32.9738 44.7525 31.9613 43.4362C30.0038 40.8713 28.9237 37.5637 28.9237 34.1213C28.9237 26.46 34.1213 20.25 40.5 20.25C46.8787 20.25 52.0763 26.46 52.0763 34.1213C52.0763 37.5637 50.9963 40.8713 49.0387 43.4362C48.0262 44.7525 47.25 46.1362 46.71 47.52C46.0013 49.2075 45.63 50.9625 45.63 52.65V53.3588C45.63 53.6963 45.7313 54 45.9675 54.2362C46.2038 54.5737 46.6087 54.8438 47.115 54.8775C48.87 55.0462 50.625 55.2825 52.3125 55.5525C51.2663 58.455 46.2713 60.75 40.5 60.75C34.7287 60.75 29.7337 58.455 28.6875 55.5525C30.375 55.2825 32.13 55.0462 33.885 54.8775C34.3913 54.8438 34.7962 54.5737 35.0325 54.2362C35.2687 54 35.37 53.6963 35.37 53.3588V52.65C35.37 50.9625 34.9987 49.2075 34.29 47.52ZM71.2463 54.3375C68.2088 52.7513 64.935 51.3675 61.3913 50.2875C61.2225 50.22 61.02 50.1863 60.8175 50.1188C58.5563 49.4438 56.2275 48.87 53.7975 48.4313C53.9662 48.1275 54.2025 47.8237 54.405 47.5537C57.2738 43.8075 58.8263 39.0487 58.8263 34.1213C58.8263 22.7475 50.625 13.5 40.5 13.5C30.375 13.5 22.1737 22.7475 22.1737 34.1213C22.1737 39.0487 23.76 43.8075 26.595 47.5537C26.8313 47.8237 27.0338 48.1275 27.2025 48.4313C24.7725 48.87 22.4438 49.4438 20.1825 50.1188C19.98 50.1863 19.7775 50.22 19.6087 50.2875C16.065 51.3675 12.7913 52.7513 9.75375 54.3375C7.79625 50.1188 6.75 45.4275 6.75 40.5C6.75 21.9037 21.9037 6.75 40.5 6.75C59.0963 6.75 74.25 21.9037 74.25 40.5C74.25 45.4275 73.2038 50.1188 71.2463 54.3375Z" fill="white"/>
</g>
<defs>
<clipPath id="clip0_111_27">
<rect width="81" height="81" fill="white"/>
</clipPath>
</defs>
</svg>
