<svg width="30" height="31" viewBox="0 0 30 31" fill="none" xmlns="http://www.w3.org/2000/svg">
<path d="M14.4048 30.3966C6.46229 30.3966 0 23.7837 0 15.6552C0 7.52674 6.46232 0.913818 14.4048 0.913818C17.9591 0.913818 21.3735 2.25022 24.0189 4.67673C24.348 4.97865 24.3753 5.49649 24.0799 5.83321C23.7853 6.17073 23.2796 6.1979 22.9498 5.89639C20.599 3.73942 17.5644 2.55174 14.4048 2.55174C7.34464 2.55174 1.60052 8.43005 1.60052 15.6552C1.60052 22.8804 7.34461 28.7587 14.4048 28.7587C21.318 28.7587 26.9386 23.225 27.1997 16.1611C27.2169 15.7092 27.5826 15.3489 28.0296 15.3733C28.4712 15.3905 28.8158 15.7708 28.7987 16.2227C28.5048 24.1707 22.1824 30.3966 14.4048 30.3966Z" fill="#22C67F"/>
<path d="M30.0002 9.19724L27.7366 6.88086L15.5545 19.3476L7.06528 10.6601L4.80176 12.9764L15.5534 23.9792L15.5545 23.9781L15.5556 23.9792L30.0002 9.19724Z" fill="#74E8AE"/>
</svg>
