<svg width="92" height="62" viewBox="0 0 92 62" fill="none" xmlns="http://www.w3.org/2000/svg">
<path fill-rule="evenodd" clip-rule="evenodd" d="M27.8809 22.9523C27.2119 23.753 26.1412 24.3845 25.0705 24.2942C24.9366 23.2117 25.4607 22.0615 26.0742 21.3512C26.7433 20.528 27.9144 19.9415 28.8625 19.8965C28.974 21.0241 28.539 22.1292 27.8809 22.9523ZM28.8512 24.5085C27.9081 24.4537 27.0474 24.7953 26.3521 25.0713C25.9048 25.249 25.5259 25.3994 25.2377 25.3994C24.9142 25.3994 24.5198 25.2409 24.0769 25.0629C23.4965 24.8299 22.833 24.5634 22.1371 24.5761C20.5423 24.5988 19.0589 25.5121 18.2447 26.9667C16.5717 29.8761 17.8098 34.1836 19.4269 36.5517C20.2189 37.7243 21.1668 39.01 22.416 38.9648C22.9656 38.9438 23.3609 38.7743 23.77 38.5987C24.2409 38.3966 24.7302 38.1867 25.4942 38.1867C26.2317 38.1867 26.6997 38.3912 27.1487 38.5874C27.5757 38.7741 27.9859 38.9532 28.5947 38.9422C29.8886 38.9197 30.7026 37.7695 31.4946 36.5967C32.3491 35.338 32.7246 34.1097 32.7817 33.9233L32.7883 33.9017C32.7883 33.9017 32.7764 33.8954 32.7577 33.8868C32.472 33.7545 30.2886 32.744 30.2677 30.0339C30.2468 27.7593 31.9995 26.6068 32.2755 26.4253C32.2923 26.4142 32.3036 26.4068 32.3087 26.4029C31.1934 24.7341 29.4535 24.5536 28.8512 24.5085ZM37.8071 38.8182V21.2384H44.3316C47.6999 21.2384 50.0532 23.5838 50.0532 27.0119C50.0532 30.4398 47.6552 32.8079 44.2425 32.8079H40.5062V38.8182H37.8071ZM40.5062 23.5387H43.6178C45.96 23.5387 47.2983 24.8017 47.2983 27.0232C47.2983 29.2446 45.96 30.5188 43.6067 30.5188H40.5062V23.5387ZM58.9644 36.7095C58.2506 38.0852 56.678 38.9535 54.9829 38.9535C52.4733 38.9535 50.7223 37.4425 50.7223 35.1647C50.7223 32.9094 52.4176 31.6127 55.5517 31.4209L58.9198 31.2179V30.2482C58.9198 28.816 57.9941 28.038 56.3435 28.038C54.9829 28.038 53.9902 28.7485 53.7894 29.8309H51.3581C51.4361 27.5531 53.5553 25.8955 56.4215 25.8955C59.5108 25.8955 61.5185 27.5306 61.5185 30.0677V38.8182H59.0202V36.7095H58.9644ZM55.7078 36.8675C54.2691 36.8675 53.3545 36.1683 53.3545 35.0969C53.3545 33.992 54.2356 33.3491 55.9197 33.2477L58.9198 33.056V34.0483C58.9198 35.6946 57.5368 36.8675 55.7078 36.8675ZM69.8052 39.5061C68.7234 42.5845 67.4853 43.5993 64.8532 43.5993C64.6525 43.5993 63.9833 43.5768 63.8271 43.5318V41.4231C63.9944 41.4456 64.4071 41.4681 64.6191 41.4681C65.8124 41.4681 66.4816 40.9607 66.8942 39.6414L67.1395 38.8632L62.5668 26.0646H65.3885L68.5671 36.4501H68.623L71.8016 26.0646H74.5452L69.8052 39.5061Z" fill="white"/>
</svg>
