<svg width="12" height="25" viewBox="0 0 12 25" fill="none" xmlns="http://www.w3.org/2000/svg">
<path d="M0.383154 13.3373H2.98714V24.0265C2.98714 24.2376 3.15864 24.4086 3.3703 24.4086H7.78546C7.99711 24.4086 8.16861 24.2376 8.16861 24.0265V13.3876H11.1621C11.3568 13.3876 11.5205 13.242 11.5427 13.0492L11.9974 9.11394C12.0099 9.00567 11.9755 8.89725 11.9028 8.81602C11.8301 8.73472 11.726 8.68819 11.6168 8.68819H8.16877V6.22138C8.16877 5.47776 8.57031 5.10068 9.36237 5.10068C9.47525 5.10068 11.6168 5.10068 11.6168 5.10068C11.8285 5.10068 12 4.92959 12 4.71863V1.10643C12 0.89539 11.8285 0.724385 11.6168 0.724385H8.50985C8.48793 0.723315 8.43927 0.721558 8.36755 0.721558C7.82845 0.721558 5.9546 0.827079 4.4744 2.18488C2.83434 3.68954 3.06232 5.49113 3.1168 5.80349V8.68811H0.383154C0.1715 8.68811 0 8.85912 0 9.07016V12.9551C0 13.1662 0.1715 13.3373 0.383154 13.3373Z" fill="white"/>
</svg>
