<svg width="185" height="112" viewBox="0 0 185 112" fill="none" xmlns="http://www.w3.org/2000/svg">
<path fill-rule="evenodd" clip-rule="evenodd" d="M21.0076 25.8823C10.3357 39.6839 0.103437 56.799 0.00083302 69.592C-0.0391283 74.4054 1.35628 78.6075 4.70331 81.7902C9.52028 86.3741 14.8276 87.9905 20.109 88C27.8269 88.0119 35.4908 84.5829 41.4915 81.9389C51.5974 77.4882 163.309 24.065 163.309 24.065C164.387 23.4703 164.185 22.7293 162.836 23.0992C162.292 23.2491 41.2204 59.3812 41.2204 59.3812C38.9271 60.0954 36.5574 60.469 34.1743 60.492C24.8698 60.5527 16.5902 54.8651 16.6572 42.8797C16.6831 38.19 17.9867 32.5345 21.0076 25.8823Z" fill="#704C4C"/>
</svg>
