<svg width="57" height="57" viewBox="0 0 57 57" fill="none" xmlns="http://www.w3.org/2000/svg">
<path d="M28.5 48.0938C24.2986 48.0938 21.2752 48.0917 18.9181 47.8631C16.5879 47.6372 15.0973 47.2031 13.9077 46.4556C12.5481 45.6014 11.3984 44.4518 10.5441 43.0923C9.79687 41.9027 9.36255 40.4121 9.13692 38.0819C8.90833 35.7248 8.90625 32.7014 8.90625 28.5C8.90625 24.2986 8.90833 21.2752 9.13692 18.9181C9.36255 16.5879 9.79687 15.0973 10.5441 13.9077C11.3984 12.5481 12.5481 11.3984 13.9077 10.5441C15.0973 9.79687 16.5879 9.36255 18.9181 9.13692C21.275 8.90833 24.2983 8.90625 28.5 8.90625C32.7014 8.90625 35.7248 8.90833 38.0819 9.13692C40.4121 9.36255 41.9027 9.79687 43.0923 10.5441C44.4518 11.3984 45.6014 12.5481 46.4556 13.9077C47.2031 15.0973 47.6372 16.5879 47.8631 18.9181C48.0917 21.2752 48.0938 24.2986 48.0938 28.5C48.0938 32.7014 48.0917 35.7248 47.8631 38.0819C47.6372 40.4121 47.2031 41.9027 46.4556 43.0923C45.6014 44.4518 44.4518 45.6014 43.0923 46.4556C41.9027 47.2031 40.4121 47.6372 38.0819 47.8631C35.7248 48.0917 32.7014 48.0938 28.5 48.0938Z" stroke="#937B7B" stroke-width="4"/>
<path d="M28.5 37.4062C33.4188 37.4062 37.4062 33.4188 37.4062 28.5C37.4062 23.5812 33.4188 19.5938 28.5 19.5938C23.5812 19.5938 19.5938 23.5812 19.5938 28.5C19.5938 33.4188 23.5812 37.4062 28.5 37.4062Z" stroke="#937B7B" stroke-width="4"/>
<path d="M40.0781 19.5938C41.5538 19.5938 42.75 18.3975 42.75 16.9219C42.75 15.4462 41.5538 14.25 40.0781 14.25C38.6025 14.25 37.4062 15.4462 37.4062 16.9219C37.4062 18.3975 38.6025 19.5938 40.0781 19.5938Z" fill="#937B7B"/>
</svg>
