<svg width="24" height="25" viewBox="0 0 24 25" fill="none" xmlns="http://www.w3.org/2000/svg">
<path d="M23.939 7.68563C23.8828 6.42704 23.6765 5.56177 23.381 4.81201C23.0762 4.01615 22.6073 3.30362 21.9929 2.71129C21.3927 2.10974 20.6658 1.64232 19.8686 1.34624C19.1044 1.05469 18.2321 0.851158 16.9567 0.795667C15.6717 0.735476 15.2638 0.721558 12.0047 0.721558C8.74559 0.721558 8.33766 0.735476 7.05743 0.790967C5.78197 0.846458 4.90511 1.05017 4.14547 1.34154C3.33876 1.64232 2.61668 2.10504 2.01641 2.71129C1.4068 3.30362 0.933285 4.02085 0.633059 4.80749C0.337595 5.56177 0.131338 6.42234 0.0751024 7.68093C0.0141046 8.94891 0 9.35145 0 12.5674C0 15.7834 0.0141046 16.1859 0.0703399 17.4492C0.126575 18.7078 0.333015 19.5731 0.628479 20.3228C0.933285 21.1187 1.4068 21.8312 2.01641 22.4235C2.61668 23.0251 3.34353 23.4925 4.14071 23.7886C4.90511 24.0801 5.77721 24.2837 7.05285 24.3392C8.33289 24.3948 8.74101 24.4086 12.0001 24.4086C15.2592 24.4086 15.6671 24.3948 16.9473 24.3392C18.2228 24.2837 19.0997 24.0801 19.8593 23.7886C21.4725 23.1731 22.748 21.9145 23.3717 20.3228C23.667 19.5685 23.8734 18.7078 23.9297 17.4492C23.9859 16.1859 24 15.7834 24 12.5674C24 9.35145 23.9952 8.94891 23.939 7.68563ZM21.7773 17.3567C21.7257 18.5135 21.5288 19.1382 21.3646 19.5546C20.9613 20.5865 20.1313 21.4055 19.0856 21.8036C18.6635 21.9655 18.0259 22.1598 16.8581 22.2106C15.592 22.2663 15.2123 22.28 12.0094 22.28C8.80659 22.28 8.4221 22.2663 7.16056 22.2106C5.98823 22.1598 5.35517 21.9655 4.93313 21.8036C4.41273 21.6138 3.93903 21.313 3.55454 20.9197C3.15595 20.5356 2.85115 20.0728 2.65881 19.5593C2.49468 19.1429 2.29777 18.5135 2.2463 17.3614C2.18988 16.112 2.17596 15.7371 2.17596 12.5766C2.17596 9.41616 2.18988 9.03676 2.2463 7.79209C2.29777 6.63527 2.49468 6.01058 2.65881 5.59413C2.85115 5.08043 3.15595 4.61318 3.55931 4.2336C3.94837 3.84028 4.41731 3.5395 4.9379 3.34989C5.35993 3.18794 5.99776 2.99363 7.16532 2.94266C8.43144 2.88716 8.81135 2.87325 12.014 2.87325C15.2216 2.87325 15.6013 2.88716 16.8629 2.94266C18.0352 2.99363 18.6683 3.18794 19.0903 3.34989C19.6107 3.5395 20.0844 3.84028 20.4689 4.2336C20.8675 4.6177 21.1723 5.08043 21.3646 5.59413C21.5288 6.01058 21.7257 6.63979 21.7773 7.79209C21.8336 9.04146 21.8477 9.41616 21.8477 12.5766C21.8477 15.7371 21.8336 16.1073 21.7773 17.3567Z" fill="white"/>
<path d="M12.0044 7.03528C8.91056 7.03528 6.40039 9.51208 6.40039 12.5651C6.40039 15.6182 8.91056 18.095 12.0044 18.095C15.0983 18.095 17.6083 15.6182 17.6083 12.5651C17.6083 9.51208 15.0983 7.03528 12.0044 7.03528ZM12.0044 16.1522C9.99726 16.1522 8.36921 14.5458 8.36921 12.5651C8.36921 10.5844 9.99726 8.97805 12.0044 8.97805C14.0116 8.97805 15.6395 10.5844 15.6395 12.5651C15.6395 14.5458 14.0116 16.1522 12.0044 16.1522V16.1522Z" fill="white"/>
<path d="M19.1384 6.8166C19.1384 7.52951 18.5526 8.10756 17.83 8.10756C17.1075 8.10756 16.5217 7.52951 16.5217 6.8166C16.5217 6.10352 17.1075 5.52563 17.83 5.52563C18.5526 5.52563 19.1384 6.10352 19.1384 6.8166V6.8166Z" fill="white"/>
</svg>
