<svg width="86" height="58" viewBox="0 0 86 58" fill="none" xmlns="http://www.w3.org/2000/svg">
<path d="M50.4827 37.706H35.9359V11.7678H50.4827V37.706Z" fill="#FF5F00"/>
<path d="M36.8588 24.7374C36.8588 19.4757 39.3417 14.7887 43.2083 11.7682C40.3808 9.55952 36.8123 8.24121 32.9341 8.24121C23.7529 8.24121 16.3103 15.6267 16.3103 24.7374C16.3103 33.848 23.7529 41.2335 32.9341 41.2335C36.8123 41.2335 40.3808 39.9152 43.2083 37.7065C39.3417 34.6861 36.8588 29.9991 36.8588 24.7374Z" fill="#EB001B"/>
<path d="M70.1074 24.7374C70.1074 33.848 62.6649 41.2335 53.4836 41.2335C49.6053 41.2335 46.0369 39.9152 43.2083 37.7065C47.0759 34.6861 49.5589 29.9991 49.5589 24.7374C49.5589 19.4757 47.0759 14.7887 43.2083 11.7682C46.0369 9.55952 49.6053 8.24121 53.4836 8.24121C62.6649 8.24121 70.1074 15.6267 70.1074 24.7374Z" fill="#F79E1B"/>
</svg>
