<svg width="21" height="21" viewBox="0 0 21 21" fill="none" xmlns="http://www.w3.org/2000/svg">
<path d="M12.8711 4.00098C10.9106 4.62889 9.62448 6.17245 9.01267 8.63168C8.09494 12.3205 6.95761 12.7909 3.25488 11.4789C4.58469 13.9351 7.27997 14.9199 9.01267 14.9199C10.7454 14.9199 15.2329 12.5074 14.7188 7.92181C14.2724 6.58624 13.6565 5.2793 12.8711 4.00098Z" fill="#D8D8D8"/>
<mask id="mask0_45_10" style="mask-type:luminance" maskUnits="userSpaceOnUse" x="3" y="4" width="12" height="11">
<path d="M12.8711 4.00098C10.9106 4.62889 9.62448 6.17245 9.01267 8.63168C8.09494 12.3205 6.95761 12.7909 3.25488 11.4789C4.58469 13.9351 7.27997 14.9199 9.01267 14.9199C10.7454 14.9199 15.2329 12.5074 14.7188 7.92181C14.2724 6.58624 13.6565 5.2793 12.8711 4.00098Z" fill="#DFCBBF"/>
</mask>
<g mask="url(#mask0_45_10)">
<path d="M21 0H0V21H21V0Z" fill="#DFCBBF"/>
</g>
<path d="M14.1567 12.9239L18.9963 17.7714C19.3346 18.1096 19.3346 18.658 18.9963 18.9963C18.658 19.3346 18.1096 19.3346 17.7714 18.9963L12.9328 14.1498C11.7587 15.064 10.2826 15.6085 8.67927 15.6085C4.85234 15.6085 1.75 12.5062 1.75 8.67927C1.75 4.85234 4.85234 1.75 8.67927 1.75C12.5062 1.75 15.6085 4.85234 15.6085 8.67927C15.6085 10.2785 15.0668 11.7512 14.1567 12.9239ZM8.67927 13.8762C11.5495 13.8762 13.8762 11.5495 13.8762 8.67927C13.8762 5.80907 11.5495 3.48232 8.67927 3.48232C5.80907 3.48232 3.48232 5.80907 3.48232 8.67927C3.48232 11.5495 5.80907 13.8762 8.67927 13.8762Z" fill="white"/>
<mask id="mask1_45_10" style="mask-type:luminance" maskUnits="userSpaceOnUse" x="1" y="1" width="19" height="19">
<path d="M14.1567 12.9239L18.9963 17.7714C19.3346 18.1096 19.3346 18.658 18.9963 18.9963C18.658 19.3346 18.1096 19.3346 17.7714 18.9963L12.9328 14.1498C11.7587 15.064 10.2826 15.6085 8.67927 15.6085C4.85234 15.6085 1.75 12.5062 1.75 8.67927C1.75 4.85234 4.85234 1.75 8.67927 1.75C12.5062 1.75 15.6085 4.85234 15.6085 8.67927C15.6085 10.2785 15.0668 11.7512 14.1567 12.9239ZM8.67927 13.8762C11.5495 13.8762 13.8762 11.5495 13.8762 8.67927C13.8762 5.80907 11.5495 3.48232 8.67927 3.48232C5.80907 3.48232 3.48232 5.80907 3.48232 8.67927C3.48232 11.5495 5.80907 13.8762 8.67927 13.8762Z" fill="white"/>
</mask>
<g mask="url(#mask1_45_10)">
<path d="M21 0H0V21H21V0Z" fill="white"/>
</g>
</svg>
