<svg width="24" height="25" viewBox="0 0 24 25" fill="none" xmlns="http://www.w3.org/2000/svg">
<path d="M24 3.52574C23.1075 4.0013 22.1565 4.31652 21.165 4.46957C22.185 3.72981 22.9635 2.56732 23.3295 1.16614C22.3785 1.85489 21.3285 2.34139 20.2095 2.61288C19.3065 1.44492 18.0195 0.721558 16.6155 0.721558C13.8915 0.721558 11.6985 3.4073 11.6985 6.6998C11.6985 7.17354 11.7315 7.62906 11.8125 8.06271C7.722 7.82037 4.1025 5.43892 1.671 1.81116C1.2465 2.7058 0.9975 3.72981 0.9975 4.83217C0.9975 6.90205 1.875 8.73688 3.183 9.79915C2.3925 9.78093 1.617 9.50215 0.96 9.06303C0.96 9.08125 0.96 9.10494 0.96 9.12863C0.96 12.033 2.6655 14.4455 4.902 15.0012C4.5015 15.1342 4.065 15.198 3.612 15.198C3.297 15.198 2.979 15.1761 2.6805 15.0959C3.318 17.4628 5.127 19.2029 7.278 19.2594C5.604 20.8501 3.4785 21.8085 1.1775 21.8085C0.774 21.8085 0.387 21.7866 0 21.7265C2.1795 23.4338 4.7625 24.4086 7.548 24.4086C16.602 24.4086 21.552 15.2982 21.552 7.4013C21.552 7.13709 21.5445 6.882 21.534 6.62874C22.5105 5.78694 23.331 4.7356 24 3.52574Z" fill="white"/>
</svg>
