<svg width="79" height="22" viewBox="0 0 79 22" fill="none" xmlns="http://www.w3.org/2000/svg">
<path d="M57.3193 0.873871C56.0477 0.449971 54.0664 0 51.6022 0C45.2936 0 40.8414 2.81032 40.8086 6.8371C40.7691 9.79839 43.976 11.4648 46.3976 12.4577C48.8849 13.4739 49.7161 14.1126 49.7096 15.0271C49.6937 16.4119 47.7217 17.039 45.8916 17.039C43.3747 17.039 41.9947 16.7284 39.8754 15.9503L39.0901 15.6281L38.1997 20.2674C39.7309 20.8336 42.4908 21.3184 45.3461 21.3561C52.0523 21.3561 56.4354 18.5661 56.488 14.2752C56.5406 11.9148 54.8123 10.1235 51.1619 8.64871C48.9473 7.69064 47.5673 7.04903 47.5673 6.07645C47.5673 5.21709 48.7469 4.29967 51.2112 4.29967C53.3304 4.27087 54.8123 4.67419 55.9919 5.09226L56.5833 5.32739L57.4737 0.844817L57.3193 0.873871ZM73.692 0.38031H68.7634C67.229 0.38031 66.0823 0.749009 65.4087 2.09612L55.9294 21.0658H62.6356L63.9761 17.9594L72.1576 17.9652C72.3579 18.691 72.9461 21.0658 72.9461 21.0658H78.8571L73.692 0.38031ZM31.74 0.206128H38.1241L34.132 20.9032H27.7446L31.74 0.206128ZM15.5119 11.6129L16.1756 14.4871L22.4217 0.380322H29.187L19.1294 21.0368H12.3806L6.86057 3.54194C6.74557 3.2429 6.60429 3.03968 6.26914 2.85387C4.40286 1.99162 2.31643 1.28903 0 0.801293L0.0821432 0.365813H10.3697C11.7629 0.412013 12.8866 0.801295 13.271 2.11936L15.5119 11.6216V11.6129ZM65.8096 13.7236L68.356 7.93452C68.3231 7.99272 68.8817 6.73839 69.2037 5.96032L69.6407 7.74581L71.116 13.7177L65.8096 13.7236Z" fill="white"/>
</svg>
